<svg width="243" height="59" viewBox="0 0 243 59" fill="none" xmlns="http://www.w3.org/2000/svg">
<path d="M79.6851 27.2207V9.72538H83.5757V27.2207H79.6851ZM82.6836 27.2207V23.8009H91.3321V27.2207H82.6836ZM92.522 27.2207L99.4607 9.72538H102.98L109.844 27.2207H105.73L100.477 12.6991H101.889L96.5613 27.2207H92.522ZM96.4622 24.0487V20.8768H106.003V24.0487H96.4622ZM112.438 27.2207V9.72538H115.214L122.103 20.4555H120.691L127.555 9.72538H130.355V27.2207H126.464V16.2923L127.158 16.4658L122.673 23.454H120.096L115.635 16.4658L116.304 16.2923V27.2207H112.438ZM137.428 27.2207V24.1974H141.541C142.301 24.1974 142.896 23.9744 143.325 23.5283C143.755 23.0823 143.97 22.5371 143.97 21.8928C143.97 21.4468 143.871 21.0503 143.672 20.7033C143.474 20.3564 143.193 20.0838 142.83 19.8856C142.483 19.6873 142.053 19.5882 141.541 19.5882H137.428V16.6393H141.219C141.863 16.6393 142.384 16.4823 142.78 16.1684C143.177 15.838 143.375 15.3424 143.375 14.6816C143.375 14.0373 143.177 13.5582 142.78 13.2443C142.384 12.9139 141.863 12.7486 141.219 12.7486H137.428V9.72538H141.962C143.086 9.72538 144.036 9.93189 144.812 10.3449C145.605 10.7579 146.208 11.3114 146.621 12.0052C147.034 12.6991 147.241 13.4673 147.241 14.3098C147.241 15.3837 146.894 16.2923 146.2 17.0357C145.506 17.7792 144.482 18.2913 143.127 18.5722L143.226 17.2588C144.697 17.5396 145.828 18.1096 146.621 18.9687C147.431 19.8277 147.836 20.885 147.836 22.1406C147.836 23.0988 147.596 23.9661 147.117 24.7426C146.654 25.5026 145.977 26.1056 145.085 26.5516C144.209 26.9977 143.152 27.2207 141.913 27.2207H137.428ZM134.454 27.2207V9.72538H138.295V27.2207H134.454ZM153.699 27.2207V23.8009H158.036C159.093 23.8009 160.018 23.5944 160.811 23.1814C161.604 22.7519 162.216 22.1324 162.645 21.3228C163.075 20.5133 163.29 19.5551 163.29 18.4483C163.29 17.3414 163.066 16.3914 162.62 15.5985C162.191 14.8055 161.58 14.1942 160.787 13.7647C160.01 13.3351 159.093 13.1204 158.036 13.1204H153.575V9.72538H158.086C159.407 9.72538 160.621 9.94015 161.728 10.3697C162.852 10.7827 163.826 11.3857 164.652 12.1787C165.495 12.9552 166.139 13.8803 166.585 14.9542C167.048 16.0115 167.279 17.1844 167.279 18.473C167.279 19.7451 167.048 20.9181 166.585 21.9919C166.139 23.0658 165.503 23.9909 164.677 24.7674C163.851 25.5439 162.876 26.1469 161.753 26.5764C160.646 27.0059 159.44 27.2207 158.135 27.2207H153.699ZM151.073 27.2207V9.72538H154.963V27.2207H151.073ZM169.185 27.2207L176.124 9.72538H179.643L186.507 27.2207H182.393L177.14 12.6991H178.552L173.224 27.2207H169.185ZM173.125 24.0487V20.8768H182.666V24.0487H173.125Z" fill="white"/>
<g clip-path="url(#clip0_2365_1521)">
<path d="M56 0H0V56H56V0Z" fill="url(#paint0_linear_2365_1521)"/>
<path fill-rule="evenodd" clip-rule="evenodd" d="M19.6053 46.2H10.9135L20.5265 26.1072L24.8822 35.0742L19.6053 46.2ZM21.1538 24.1871C21.0359 23.9456 20.7903 23.7923 20.5223 23.7923H20.5202C20.2501 23.793 20.0045 23.9477 19.8887 24.1906L9.16856 46.5983C9.06472 46.8153 9.07945 47.0701 9.20855 47.2738C9.33625 47.4768 9.56077 47.6 9.80143 47.6H20.0494C20.3209 47.6 20.5672 47.4439 20.6837 47.1996L26.2946 35.3696C26.3851 35.1778 26.3844 34.9559 26.2911 34.7655L21.1538 24.1871ZM45.4967 46.2H36.8611L23.0068 17.199C22.891 16.9554 22.644 16.8 22.3732 16.8H16.723L16.7293 9.79999H27.8038L41.5943 38.8003C41.7101 39.0439 41.957 39.2 42.2279 39.2H45.4967V46.2ZM46.1984 37.8H42.672L28.8815 8.79969C28.7657 8.55609 28.5188 8.39999 28.2472 8.39999H16.0284C15.6418 8.39999 15.3274 8.71289 15.3267 9.09929L15.319 17.4993C15.319 17.6855 15.392 17.8633 15.5246 17.9949C15.6558 18.1265 15.834 18.2 16.0207 18.2H21.9305L35.7855 47.201C35.902 47.4446 36.1476 47.6 36.4184 47.6H46.1984C46.5864 47.6 46.9 47.2864 46.9 46.9V38.5C46.9 38.1136 46.5864 37.8 46.1984 37.8Z" fill="white"/>
</g>
<path d="M80.9957 54.1602L85.456 43.2606H86.5239L90.9686 54.1602H89.3666L85.7073 44.9411H86.257L82.5662 54.1602H80.9957ZM83.1159 51.6944V50.4066H88.8483V51.6944H83.1159ZM92.6094 54.1602V43.2606H93.646L94.0857 44.9725V54.1602H92.6094ZM100.148 54.1602L93.4575 45.2238L93.646 43.2606L100.352 52.1813L100.148 54.1602ZM100.148 54.1602L99.7082 52.5425V43.2606H101.185V54.1602H100.148ZM102.959 54.1602L107.419 43.2606H108.487L112.932 54.1602H111.33L107.67 44.9411H108.22L104.529 54.1602H102.959ZM105.079 51.6944V50.4066H110.811V51.6944H105.079ZM114.572 54.1602V43.2606H116.049V54.1602H114.572ZM115.578 54.1602V52.8095H121.42V54.1602H115.578ZM125.098 49.7312L120.81 43.2606H122.522L125.978 48.5533H125.208L128.679 43.2606H130.359L126.04 49.7312H125.098ZM124.847 54.1602V48.7575H126.323V54.1602H124.847ZM134.241 54.1602V43.5747H135.717V54.1602H134.241ZM130.535 44.6113V43.2606H139.408V44.6113H130.535ZM141.167 54.1602V43.2606H142.644V54.1602H141.167ZM150.163 54.3172C149.378 54.3172 148.651 54.1759 147.98 53.8932C147.31 53.6 146.724 53.1969 146.221 52.6839C145.729 52.1708 145.347 51.574 145.075 50.8934C144.803 50.2129 144.667 49.4852 144.667 48.7104C144.667 47.9251 144.803 47.1922 145.075 46.5116C145.347 45.8311 145.729 45.2395 146.221 44.7369C146.724 44.2239 147.305 43.826 147.965 43.5433C148.635 43.2502 149.362 43.1036 150.148 43.1036C151.006 43.1036 151.76 43.2502 152.409 43.5433C153.058 43.8365 153.634 44.2344 154.137 44.7369L153.116 45.7578C152.771 45.3704 152.346 45.0667 151.844 44.8469C151.352 44.627 150.786 44.5171 150.148 44.5171C149.572 44.5171 149.043 44.6218 148.562 44.8312C148.08 45.0301 147.661 45.318 147.305 45.695C146.949 46.0719 146.672 46.5169 146.473 47.0299C146.284 47.543 146.19 48.1031 146.19 48.7104C146.19 49.3177 146.284 49.8778 146.473 50.3909C146.672 50.9039 146.949 51.3489 147.305 51.7258C147.661 52.1028 148.08 52.3959 148.562 52.6053C149.043 52.8043 149.572 52.9037 150.148 52.9037C150.828 52.9037 151.42 52.7938 151.922 52.5739C152.425 52.3436 152.849 52.0347 153.195 51.6473L154.215 52.6524C153.713 53.176 153.121 53.5843 152.441 53.8775C151.771 54.1706 151.012 54.3172 150.163 54.3172ZM158.876 54.3172C158.018 54.3172 157.285 54.1602 156.677 53.846C156.07 53.5319 155.531 53.0765 155.06 52.4797L156.065 51.4745C156.41 51.9562 156.808 52.3226 157.258 52.5739C157.709 52.8147 158.264 52.9351 158.923 52.9351C159.572 52.9351 160.091 52.7938 160.478 52.5111C160.876 52.2284 161.075 51.841 161.075 51.3489C161.075 50.9406 160.981 50.6107 160.792 50.3595C160.604 50.1082 160.347 49.904 160.023 49.7469C159.709 49.5794 159.363 49.4328 158.986 49.3072C158.609 49.1711 158.232 49.0297 157.855 48.8832C157.478 48.7261 157.133 48.5376 156.819 48.3178C156.505 48.0874 156.248 47.789 156.049 47.4226C155.861 47.0561 155.766 46.5954 155.766 46.0405C155.766 45.4227 155.913 44.8992 156.206 44.4699C156.51 44.0302 156.918 43.6951 157.431 43.4648C157.955 43.224 158.541 43.1036 159.19 43.1036C159.902 43.1036 160.541 43.2449 161.106 43.5276C161.672 43.7998 162.132 44.1611 162.488 44.6113L161.483 45.6164C161.159 45.2395 160.808 44.9568 160.431 44.7683C160.065 44.5799 159.64 44.4856 159.159 44.4856C158.572 44.4856 158.107 44.6165 157.761 44.8783C157.416 45.1296 157.243 45.4856 157.243 45.9462C157.243 46.3127 157.337 46.6111 157.525 46.8415C157.724 47.0613 157.981 47.2498 158.295 47.4068C158.609 47.5639 158.955 47.7105 159.332 47.8466C159.719 47.9722 160.101 48.1136 160.478 48.2706C160.855 48.4277 161.201 48.6266 161.515 48.8674C161.829 49.1083 162.08 49.4224 162.268 49.8098C162.467 50.1867 162.567 50.6631 162.567 51.239C162.567 52.2022 162.232 52.9561 161.562 53.5005C160.902 54.045 160.007 54.3172 158.876 54.3172Z" fill="#8E9FB3"/>
<defs>
<linearGradient id="paint0_linear_2365_1521" x1="0" y1="5600" x2="5600" y2="0" gradientUnits="userSpaceOnUse">
<stop stop-color="#C8511B"/>
<stop offset="1" stop-color="#FF9900"/>
</linearGradient>
<clipPath id="clip0_2365_1521">
<rect width="56" height="56" rx="5" fill="white"/>
</clipPath>
</defs>
</svg>
